<?xml version="1.0" encoding="UTF-8" standalone="no"?>
<svg
   height="144"
   viewBox="0 -960 5760 5760"
   width="144"
   version="1.1"
   id="svg826"
   sodipodi:docname="video_chat_FILL0_wght400_GRAD0_opsz144.svg"
   inkscape:version="1.1.2 (0a00cf5339, 2022-02-04)"
   xmlns:inkscape="http://www.inkscape.org/namespaces/inkscape"
   xmlns:sodipodi="http://sodipodi.sourceforge.net/DTD/sodipodi-0.dtd"
   xmlns="http://www.w3.org/2000/svg"
   xmlns:svg="http://www.w3.org/2000/svg">
  <defs
     id="defs830" />
  <sodipodi:namedview
     id="namedview828"
     pagecolor="#ffffff"
     bordercolor="#666666"
     borderopacity="1.0"
     inkscape:pageshadow="2"
     inkscape:pageopacity="0.0"
     inkscape:pagecheckerboard="0"
     showgrid="false"
     inkscape:zoom="2.0520833"
     inkscape:cx="84.060915"
     inkscape:cy="134.98477"
     inkscape:window-width="1920"
     inkscape:window-height="1003"
     inkscape:window-x="0"
     inkscape:window-y="40"
     inkscape:window-maximized="1"
     inkscape:current-layer="svg826" />
  <path
     d="m 2240,2240 h 960 q 68,0 114,-46 46,-46 46,-114 v -320 l 320,320 v -960 l -320,320 v -320 q 0,-68 -46,-114 -46,-46 -114,-46 h -960 q -68,0 -114,46 -46,46 -46,114 v 960 q 0,68 46,114 46,46 114,46 z M 1280,3520 V 640 q 0,-132 94,-226 94,-94 226,-94 h 2560 q 132,0 226,94 94,94 94,226 v 1920 q 0,132 -94,226 -94,94 -226,94 H 1920 Z m 504,-960 H 4160 V 640 H 1600 v 2100 z m -184,0 V 640 Z"
     id="path824"
     style="fill:#7f5700;fill-opacity:1;stroke-width:4" />
</svg>
