<?xml version="1.0" encoding="UTF-8" standalone="no"?>
<svg
   height="144"
   viewBox="0 -960 5760 5760"
   width="144"
   version="1.1"
   id="svg826"
   sodipodi:docname="video_chat_FILL0_wght400_GRAD0_opsz144.svg"
   inkscape:version="1.1.2 (0a00cf5339, 2022-02-04)"
   xmlns:inkscape="http://www.inkscape.org/namespaces/inkscape"
   xmlns:sodipodi="http://sodipodi.sourceforge.net/DTD/sodipodi-0.dtd"
   xmlns="http://www.w3.org/2000/svg"
   xmlns:svg="http://www.w3.org/2000/svg">
  <defs
     id="defs830" />
  <sodipodi:namedview
     id="namedview828"
     pagecolor="#ffffff"
     bordercolor="#666666"
     borderopacity="1.0"
     inkscape:pageshadow="2"
     inkscape:pageopacity="0.0"
     inkscape:pagecheckerboard="0"
     showgrid="false"
     inkscape:zoom="2.0520833"
     inkscape:cx="84.060914"
     inkscape:cy="134.98477"
     inkscape:window-width="1920"
     inkscape:window-height="1003"
     inkscape:window-x="0"
     inkscape:window-y="40"
     inkscape:window-maximized="1"
     inkscape:current-layer="svg826" />
  <path
     d="m 1920,2400 h 1440 q 102,0 171,-69 69,-69 69,-171 v -480 l 480,480 V 720 l -480,480 V 720 q 0,-102 -69,-171 -69,-69 -171,-69 H 1920 q -102,0 -171,69 -69,69 -69,171 v 1440 q 0,102 69,171 69,69 171,69 z M 480,4320 V 0 q 0,-198 141,-339 141,-141 339,-141 h 3840 q 198,0 339,141 141,141 141,339 v 2880 q 0,198 -141,339 -141,141 -339,141 H 1440 Z M 1236,2880 H 4800 V 0 H 960 v 3150 z m -276,0 V 0 Z"
     id="path824"
     style="stroke-width:6;fill:#7f5700;fill-opacity:1" />
</svg>
